M48
;Layer_Color=9474304
;FILE_FORMAT=4:4
METRIC,LZ
;TYPE=PLATED
T1F00S00C0.3000
T2F00S00C0.4000
T3F00S00C0.7000
T4F00S00C0.7500
T5F00S00C0.9000
T6F00S00C1.5001
T7F00S00C2.2000
T8F00S00C3.1500
;TYPE=NON_PLATED
T9F00S00C3.1500
%
T01
X-00397056Y-0048898
X-00388571Y-00481909
X-00417Y-00466
X-00434533Y-00450089
X-00433826Y-00397056
X-00424971Y-00380864
X-0038645Y-0038645
X-00366Y-00398
X-00333754Y-00397394
X-00314325Y-00396349
X-00305133Y-00387157
X-00341692Y-0037139
X-0035Y-0032
X-00391896Y-0032173
X-00406956Y-00330588
X-00415Y-00307
X-00459282Y-00365944
X-0047Y-0036
X-004775Y-003875
X-00380086Y-00430998
X-00353569Y-00444079
X-00209999Y-0036
X-00189999
X-00169999
X-00179999Y-0038
X-00159999
Y-0034
X-00179999
X-00199999
X-00219999
X-00209999Y-0032
X-00169999
X-00149999
X-00049999
X-00029999
X-00009999
X00010001
X00030001
X00050001
X00070001
X00090001
X00110001
X00150001
X00170001
X00160001Y-0034
X00180001
Y-0038
X00210001Y-0036
Y-0032
X00230001
X00120001Y-0038
X00100001
X00090001Y-004
X00110001
X00130001
X00120001Y-0042
X00100001
X00040001
X00020001
X00000001
X-00019999
X-00039999
X-00059999
X-00049999Y-004
X-00029999
X-00009999
X00010001
X00030001
X00020001Y-0038
X00000001
X-00019999
X-00039999
X-00029999Y-0036
X-00009999
X00010001
X00030001
X00020001Y-0034
X00000001
X-00019999
X-00039999
X00040001
Y-0038
X00090001Y-0036
X00240001Y-0034
X00250001Y-0032
X00270001
X00320001Y-0026
X00345068Y-00186676
X00361205Y-00186196
X00381838Y-00145664
X00304763Y-00130815
X00280014Y-00123037
X00267286Y-00149907
X00265165Y-00163342
X00250001Y-002
X00313955Y-00046669
X00333754Y-00048083
X0034224Y-00046669
X00350725Y-00050912
X00364867Y-00042426
X00377595Y-00035355
X00420021Y-00025456
X004278Y-00030406
X00431335Y-00022627
X00414365Y-00005657
X00431335Y00039598
X00421436Y00069296
X00434871Y-00068589
X0031842Y-00014364
X0031042Y-00016263
X00328804Y00007778
X00335169Y00002828
X00190001Y-0024
X00180001Y-0026
X00160001
X00130001Y-0028
X00140001Y-003
X00100001
X00080001
X00060001
X00040001
X-00039999
X-00059999
X-00079999
X-00099999
X-00119999
X-00139999
X-00129999Y-0028
X00191626Y-00280721
X00200001Y-003
X-00159999
X-00328805Y-00236881
X-00313845Y-00163938
X-0035426Y-00013435
X-00363453Y00012728
X00019092Y0032739
X00056568Y00306884
X00127986Y00293449
X00130108Y00277186
X00173241Y00255266
X00215668Y0022981
X00226274Y0036911
X00219203Y00376181
X00207889
X00200818Y0036911
X00263044Y00271529
X00294156Y00294156
X00289914Y00199404
X00241477Y00221678
X00360001Y0022
X00380001
X00390001Y002
X00400001Y0018
X00372281Y0018209
X00372645Y00173241
X00370001Y0016
X00410001
T02
X00350725Y-0002687
X-0039Y-00025
X-00405
X-003975Y-0004
X-003825
X-00405Y-00055
X-003975Y-0001
X-00405Y00005
X-003975Y0002
X-00405Y00035
X-00375
X-00373Y-00156
X-00365Y-00173
X-00351Y-00167
X-00357Y-00189
X-00345Y-00205
X-00321Y-00222
X-00304Y-0022
X-002775Y0014
X-0027Y00155
X-00255Y00185
X-0024
X-002325Y002
X-002475
X-002625
X-002775
X-002925
X-003075
X-003225
X-0033Y00185
X-00315
X-003
Y00215
X-00315
X-0033
X-003225Y0023
Y0017
X-003375
X-003525
X-00225Y00215
X-002025Y0023
X-00195Y00245
X-0018
X-001875Y0026
X-002025
X-00195Y00275
X-0003Y00305
X-0002Y00308
X0Y00308
X0003Y00335
X00032Y00345
X00032527Y00362039
X00033941Y00379009
X-000075Y0038
X-000975
X00175362Y00346482
X00183848Y00354968
X00196576Y00321026
X00205061Y00329512
X00205768Y00311834
X00214253Y00320319
Y00338704
X00189504Y00264457
X003225Y00255
X003425Y00255
Y002375
X0036
X00341179Y00175009
X003925Y001675
X00312541Y00295571
X00294863Y00313248
T03
X00266049Y00300343
X00300343Y00266049
T04
X-00378107Y-00401413
X-00400107Y-00379412
T05
X00196222Y003433
X002139Y00360978
T06
X00278246Y00329157
X00329157Y00278246
T07
X-0017112Y-0023476
X-00250316Y00147078
T08
X0Y0
T09
X-00095742Y-00357372
X0026163Y-0026163
X-00357372Y-00095742
X-0026163Y0026163
X00095742Y00357372
X00357372Y00095742
M30
