G04 Layer_Color=8388736*
%FSLAX44Y44*%
%MOMM*%
G71*
G01*
G75*
G04:AMPARAMS|DCode=91|XSize=1.6032mm|YSize=1.3032mm|CornerRadius=0mm|HoleSize=0mm|Usage=FLASHONLY|Rotation=135.000|XOffset=0mm|YOffset=0mm|HoleType=Round|Shape=Rectangle|*
%AMROTATEDRECTD91*
4,1,4,1.0276,-0.1061,0.1061,-1.0276,-1.0276,0.1061,-0.1061,1.0276,1.0276,-0.1061,0.0*
%
%ADD91ROTATEDRECTD91*%

G04:AMPARAMS|DCode=92|XSize=1.1032mm|YSize=1.0032mm|CornerRadius=0mm|HoleSize=0mm|Usage=FLASHONLY|Rotation=315.000|XOffset=0mm|YOffset=0mm|HoleType=Round|Shape=Rectangle|*
%AMROTATEDRECTD92*
4,1,4,-0.7447,0.0353,-0.0353,0.7447,0.7447,-0.0353,0.0353,-0.7447,-0.7447,0.0353,0.0*
%
%ADD92ROTATEDRECTD92*%

G04:AMPARAMS|DCode=93|XSize=1.1032mm|YSize=0.9032mm|CornerRadius=0mm|HoleSize=0mm|Usage=FLASHONLY|Rotation=315.000|XOffset=0mm|YOffset=0mm|HoleType=Round|Shape=Rectangle|*
%AMROTATEDRECTD93*
4,1,4,-0.7094,0.0707,-0.0707,0.7094,0.7094,-0.0707,0.0707,-0.7094,-0.7094,0.0707,0.0*
%
%ADD93ROTATEDRECTD93*%

G04:AMPARAMS|DCode=94|XSize=1.8032mm|YSize=1.0032mm|CornerRadius=0mm|HoleSize=0mm|Usage=FLASHONLY|Rotation=225.000|XOffset=0mm|YOffset=0mm|HoleType=Round|Shape=Rectangle|*
%AMROTATEDRECTD94*
4,1,4,0.2828,0.9922,0.9922,0.2828,-0.2828,-0.9922,-0.9922,-0.2828,0.2828,0.9922,0.0*
%
%ADD94ROTATEDRECTD94*%

G04:AMPARAMS|DCode=95|XSize=1.1032mm|YSize=0.9032mm|CornerRadius=0mm|HoleSize=0mm|Usage=FLASHONLY|Rotation=45.000|XOffset=0mm|YOffset=0mm|HoleType=Round|Shape=Rectangle|*
%AMROTATEDRECTD95*
4,1,4,-0.0707,-0.7094,-0.7094,-0.0707,0.0707,0.7094,0.7094,0.0707,-0.0707,-0.7094,0.0*
%
%ADD95ROTATEDRECTD95*%

G04:AMPARAMS|DCode=96|XSize=3.2032mm|YSize=1.6032mm|CornerRadius=0mm|HoleSize=0mm|Usage=FLASHONLY|Rotation=315.000|XOffset=0mm|YOffset=0mm|HoleType=Round|Shape=Round|*
%AMOVALD96*
21,1,1.6000,1.6032,0.0000,0.0000,315.0*
1,1,1.6032,-0.5657,0.5657*
1,1,1.6032,0.5657,-0.5657*
%
%ADD96OVALD96*%

G04:AMPARAMS|DCode=97|XSize=1.3032mm|YSize=2.2032mm|CornerRadius=0mm|HoleSize=0mm|Usage=FLASHONLY|Rotation=225.000|XOffset=0mm|YOffset=0mm|HoleType=Round|Shape=Rectangle|*
%AMROTATEDRECTD97*
4,1,4,-0.3182,1.2397,1.2397,-0.3182,0.3182,-1.2397,-1.2397,0.3182,-0.3182,1.2397,0.0*
%
%ADD97ROTATEDRECTD97*%

G04:AMPARAMS|DCode=98|XSize=1.3032mm|YSize=2.2032mm|CornerRadius=0mm|HoleSize=0mm|Usage=FLASHONLY|Rotation=285.000|XOffset=0mm|YOffset=0mm|HoleType=Round|Shape=Rectangle|*
%AMROTATEDRECTD98*
4,1,4,-1.2327,0.3443,0.8954,0.9145,1.2327,-0.3443,-0.8954,-0.9145,-1.2327,0.3443,0.0*
%
%ADD98ROTATEDRECTD98*%

G04:AMPARAMS|DCode=99|XSize=1.3032mm|YSize=2.2032mm|CornerRadius=0mm|HoleSize=0mm|Usage=FLASHONLY|Rotation=345.000|XOffset=0mm|YOffset=0mm|HoleType=Round|Shape=Rectangle|*
%AMROTATEDRECTD99*
4,1,4,-0.9145,-0.8954,-0.3443,1.2327,0.9145,0.8954,0.3443,-1.2327,-0.9145,-0.8954,0.0*
%
%ADD99ROTATEDRECTD99*%

%ADD100P,1.1359X4X270.0*%
G04:AMPARAMS|DCode=101|XSize=0.6032mm|YSize=0.8032mm|CornerRadius=0mm|HoleSize=0mm|Usage=FLASHONLY|Rotation=225.000|XOffset=0mm|YOffset=0mm|HoleType=Round|Shape=Rectangle|*
%AMROTATEDRECTD101*
4,1,4,-0.0707,0.4972,0.4972,-0.0707,0.0707,-0.4972,-0.4972,0.0707,-0.0707,0.4972,0.0*
%
%ADD101ROTATEDRECTD101*%

%ADD102C,1.4032*%
%ADD103P,1.9844X4X360.0*%
G04:AMPARAMS|DCode=104|XSize=2.3033mm|YSize=1.2532mm|CornerRadius=0mm|HoleSize=0mm|Usage=FLASHONLY|Rotation=225.000|XOffset=0mm|YOffset=0mm|HoleType=Round|Shape=Round|*
%AMOVALD104*
21,1,1.0500,1.2532,0.0000,0.0000,225.0*
1,1,1.2532,0.3712,0.3712*
1,1,1.2532,-0.3712,-0.3712*
%
%ADD104OVALD104*%

%ADD105C,2.4534*%
%ADD106C,3.3032*%
%ADD107P,2.2673X4X270.0*%
%ADD108C,1.6032*%
%ADD109C,2.4032*%
%ADD110C,0.8032*%
D91*
X-354276Y-406602D02*
D03*
X-364883Y-417209D02*
D03*
D92*
X-380086Y-428169D02*
D03*
X-389985Y-438069D02*
D03*
X-386096Y-359933D02*
D03*
X-400946Y-345084D02*
D03*
X-374782Y-371247D02*
D03*
X-359933Y-386096D02*
D03*
D93*
X-388925Y-418623D02*
D03*
X-399531Y-429230D02*
D03*
X-429937Y-393167D02*
D03*
X-440543Y-403774D02*
D03*
D94*
X-418977Y-358166D02*
D03*
X-443018Y-382207D02*
D03*
D95*
X-431689Y-415425D02*
D03*
X-421082Y-426032D02*
D03*
D96*
X-364867Y-328098D02*
D03*
X-328098Y-364867D02*
D03*
D97*
X271529Y237588D02*
D03*
X283550Y249609D02*
D03*
X259508Y225567D02*
D03*
X225567Y259508D02*
D03*
X249609Y283550D02*
D03*
X237588Y271529D02*
D03*
X-271529Y-237588D02*
D03*
X-283550Y-249609D02*
D03*
X-259508Y-225567D02*
D03*
X-225567Y-259508D02*
D03*
X-249609Y-283550D02*
D03*
X-237588Y-271529D02*
D03*
D98*
X-72277Y363301D02*
D03*
X-76677Y379721D02*
D03*
X-67877Y346880D02*
D03*
X-114242Y334457D02*
D03*
X-123041Y367298D02*
D03*
X-118642Y350877D02*
D03*
X72277Y-363301D02*
D03*
X76677Y-379721D02*
D03*
X67877Y-346880D02*
D03*
X114242Y-334457D02*
D03*
X123041Y-367298D02*
D03*
X118642Y-350877D02*
D03*
D99*
X-340271Y115106D02*
D03*
X-356691Y119506D02*
D03*
X-323850Y110706D02*
D03*
X-336273Y64342D02*
D03*
X-369115Y73142D02*
D03*
X-352694Y68742D02*
D03*
X340271Y-115106D02*
D03*
X356691Y-119506D02*
D03*
X323850Y-110706D02*
D03*
X336273Y-64342D02*
D03*
X369115Y-73142D02*
D03*
X352694Y-68742D02*
D03*
D100*
X-422159Y-405188D02*
D03*
X-411552Y-394581D02*
D03*
X-398824Y-407309D02*
D03*
X-409431Y-417916D02*
D03*
D101*
X-416855Y-399885D02*
D03*
X-404127Y-412613D02*
D03*
D102*
X-378107Y-401413D02*
D03*
D103*
X-400107Y-379412D02*
D03*
D104*
X300343Y266049D02*
D03*
X266049Y300343D02*
D03*
D105*
X278246Y329157D02*
D03*
X329157Y278246D02*
D03*
D106*
X357372Y95742D02*
D03*
X261630Y-261630D02*
D03*
X-95742Y-357372D02*
D03*
X-357372Y-95742D02*
D03*
X-261630Y261630D02*
D03*
X95742Y357372D02*
D03*
X0Y0D02*
D03*
D107*
X213900Y360978D02*
D03*
D108*
X196222Y343300D02*
D03*
D109*
X-171120Y-234760D02*
D03*
X-250316Y147078D02*
D03*
D110*
X-433826Y-397056D02*
D03*
X-380086Y-430998D02*
D03*
M02*
