G04 Layer_Color=65535*
%FSLAX44Y44*%
%MOMM*%
G71*
G01*
G75*
%ADD10C,0.3000*%
%ADD27C,0.2000*%
%ADD89C,0.2500*%
G36*
X413222Y-88351D02*
X411266Y-96828D01*
X419744Y-98785D01*
X418922Y-102347D01*
X410444Y-100391D01*
X408467Y-108959D01*
X404859Y-108126D01*
X406836Y-99558D01*
X398359Y-97602D01*
X399181Y-94040D01*
X407659Y-95996D01*
X409615Y-87518D01*
X413222Y-88351D01*
D02*
G37*
D10*
X227688Y243245D02*
X243245Y227688D01*
X265872Y281429D02*
X281429Y265872D01*
X-99096Y328162D02*
X-77846Y333856D01*
X-113073Y380322D02*
X-91822Y386016D01*
X-323249Y74310D02*
X-317555Y95561D01*
X-375409Y88287D02*
X-369715Y109537D01*
X-243245Y-227688D02*
X-227688Y-243245D01*
X-281429Y-265872D02*
X-265872Y-281429D01*
X77846Y-333856D02*
X99096Y-328162D01*
X91822Y-386016D02*
X113073Y-380322D01*
X317555Y-95561D02*
X323249Y-74310D01*
X369715Y-109537D02*
X375409Y-88287D01*
X-417562Y-413320D02*
X-403420Y-399178D01*
D27*
X-393167Y-427816D02*
X-390339Y-424987D01*
X-398117Y-422866D02*
X-395289Y-420037D01*
X-406249Y-351094D02*
X-392107Y-365237D01*
X-394935Y-339781D02*
X-380793Y-353923D01*
X-400592Y-356751D02*
X-389278Y-345438D01*
X-368772Y-365944D02*
X-354630Y-380086D01*
X-380086Y-377257D02*
X-365944Y-391399D01*
X-371600Y-385743D02*
X-360287Y-374429D01*
X-435240Y-386450D02*
X-414734Y-365944D01*
X-447261Y-374429D02*
X-426755Y-353923D01*
X-416148Y-364529D02*
X-414734Y-365944D01*
X-426755Y-353923D02*
X-425341Y-355337D01*
X-436654Y-385036D02*
X-435240Y-386450D01*
X-447261Y-374429D02*
X-445847Y-375843D01*
X-440543Y-367711D02*
X-428523Y-379732D01*
X-434179Y-402360D02*
X-431351Y-399531D01*
X-439129Y-397410D02*
X-436301Y-394581D01*
X-425325Y-416839D02*
X-422496Y-419668D01*
X-430275Y-421789D02*
X-427446Y-424618D01*
D89*
X-407708Y-431335D02*
G03*
X-407708Y-431335I-1000J0D01*
G01*
M02*
