G04 Layer_Physical_Order=1*
G04 Layer_Color=255*
%FSLAX44Y44*%
%MOMM*%
G71*
G01*
G75*
%ADD10C,0.3000*%
G04:AMPARAMS|DCode=11|XSize=1.4mm|YSize=1.1mm|CornerRadius=0mm|HoleSize=0mm|Usage=FLASHONLY|Rotation=135.000|XOffset=0mm|YOffset=0mm|HoleType=Round|Shape=Rectangle|*
%AMROTATEDRECTD11*
4,1,4,0.8839,-0.1061,0.1061,-0.8839,-0.8839,0.1061,-0.1061,0.8839,0.8839,-0.1061,0.0*
%
%ADD11ROTATEDRECTD11*%

G04:AMPARAMS|DCode=12|XSize=0.9mm|YSize=0.8mm|CornerRadius=0mm|HoleSize=0mm|Usage=FLASHONLY|Rotation=315.000|XOffset=0mm|YOffset=0mm|HoleType=Round|Shape=Rectangle|*
%AMROTATEDRECTD12*
4,1,4,-0.6010,0.0353,-0.0353,0.6010,0.6010,-0.0353,0.0353,-0.6010,-0.6010,0.0353,0.0*
%
%ADD12ROTATEDRECTD12*%

G04:AMPARAMS|DCode=13|XSize=0.9mm|YSize=0.7mm|CornerRadius=0mm|HoleSize=0mm|Usage=FLASHONLY|Rotation=315.000|XOffset=0mm|YOffset=0mm|HoleType=Round|Shape=Rectangle|*
%AMROTATEDRECTD13*
4,1,4,-0.5657,0.0707,-0.0707,0.5657,0.5657,-0.0707,0.0707,-0.5657,-0.5657,0.0707,0.0*
%
%ADD13ROTATEDRECTD13*%

G04:AMPARAMS|DCode=14|XSize=1.6mm|YSize=0.8mm|CornerRadius=0mm|HoleSize=0mm|Usage=FLASHONLY|Rotation=225.000|XOffset=0mm|YOffset=0mm|HoleType=Round|Shape=Rectangle|*
%AMROTATEDRECTD14*
4,1,4,0.2828,0.8485,0.8485,0.2828,-0.2828,-0.8485,-0.8485,-0.2828,0.2828,0.8485,0.0*
%
%ADD14ROTATEDRECTD14*%

G04:AMPARAMS|DCode=15|XSize=0.9mm|YSize=0.7mm|CornerRadius=0mm|HoleSize=0mm|Usage=FLASHONLY|Rotation=45.000|XOffset=0mm|YOffset=0mm|HoleType=Round|Shape=Rectangle|*
%AMROTATEDRECTD15*
4,1,4,-0.0707,-0.5657,-0.5657,-0.0707,0.0707,0.5657,0.5657,0.0707,-0.0707,-0.5657,0.0*
%
%ADD15ROTATEDRECTD15*%

G04:AMPARAMS|DCode=16|XSize=3mm|YSize=1.4mm|CornerRadius=0mm|HoleSize=0mm|Usage=FLASHONLY|Rotation=315.000|XOffset=0mm|YOffset=0mm|HoleType=Round|Shape=Round|*
%AMOVALD16*
21,1,1.6000,1.4000,0.0000,0.0000,315.0*
1,1,1.4000,-0.5657,0.5657*
1,1,1.4000,0.5657,-0.5657*
%
%ADD16OVALD16*%

G04:AMPARAMS|DCode=17|XSize=1.1mm|YSize=2mm|CornerRadius=0mm|HoleSize=0mm|Usage=FLASHONLY|Rotation=225.000|XOffset=0mm|YOffset=0mm|HoleType=Round|Shape=Rectangle|*
%AMROTATEDRECTD17*
4,1,4,-0.3182,1.0960,1.0960,-0.3182,0.3182,-1.0960,-1.0960,0.3182,-0.3182,1.0960,0.0*
%
%ADD17ROTATEDRECTD17*%

G04:AMPARAMS|DCode=18|XSize=1.1mm|YSize=2mm|CornerRadius=0mm|HoleSize=0mm|Usage=FLASHONLY|Rotation=285.000|XOffset=0mm|YOffset=0mm|HoleType=Round|Shape=Rectangle|*
%AMROTATEDRECTD18*
4,1,4,-1.1083,0.2724,0.8236,0.7901,1.1083,-0.2724,-0.8236,-0.7901,-1.1083,0.2724,0.0*
%
%ADD18ROTATEDRECTD18*%

G04:AMPARAMS|DCode=19|XSize=1.1mm|YSize=2mm|CornerRadius=0mm|HoleSize=0mm|Usage=FLASHONLY|Rotation=345.000|XOffset=0mm|YOffset=0mm|HoleType=Round|Shape=Rectangle|*
%AMROTATEDRECTD19*
4,1,4,-0.7901,-0.8236,-0.2724,1.1083,0.7901,0.8236,0.2724,-1.1083,-0.7901,-0.8236,0.0*
%
%ADD19ROTATEDRECTD19*%

%ADD20P,0.8485X4X270.0*%
G04:AMPARAMS|DCode=21|XSize=0.4mm|YSize=0.6mm|CornerRadius=0mm|HoleSize=0mm|Usage=FLASHONLY|Rotation=225.000|XOffset=0mm|YOffset=0mm|HoleType=Round|Shape=Rectangle|*
%AMROTATEDRECTD21*
4,1,4,-0.0707,0.3535,0.3535,-0.0707,0.0707,-0.3535,-0.3535,0.0707,-0.0707,0.3535,0.0*
%
%ADD21ROTATEDRECTD21*%

%ADD22C,0.7000*%
%ADD23C,0.6000*%
%ADD24C,0.4000*%
%ADD25C,0.3500*%
%ADD26C,0.5000*%
%ADD27C,0.2000*%
%ADD28C,1.0000*%
%ADD29C,0.8000*%
%ADD30C,1.2000*%
%ADD31P,1.6971X4X360.0*%
G04:AMPARAMS|DCode=32|XSize=2.1001mm|YSize=1.05mm|CornerRadius=0mm|HoleSize=0mm|Usage=FLASHONLY|Rotation=225.000|XOffset=0mm|YOffset=0mm|HoleType=Round|Shape=Round|*
%AMOVALD32*
21,1,1.0500,1.0500,0.0000,0.0000,225.0*
1,1,1.0500,0.3712,0.3712*
1,1,1.0500,-0.3712,-0.3712*
%
%ADD32OVALD32*%

%ADD33C,2.2502*%
%ADD34C,3.1000*%
%ADD35P,1.9799X4X270.0*%
%ADD36C,1.4000*%
%ADD37C,2.2000*%
%ADD38C,0.7000*%
%ADD39C,0.6000*%
%ADD40C,0.8000*%
G36*
X310431Y23238D02*
Y6364D01*
X310671Y4537D01*
X311376Y2834D01*
X311947Y2090D01*
X311984Y1809D01*
X312689Y106D01*
X313811Y-1356D01*
X319669Y-7214D01*
X321132Y-8336D01*
X322835Y-9042D01*
X322923Y-9053D01*
X345732Y-31862D01*
X347195Y-32984D01*
X348898Y-33690D01*
X350725Y-33930D01*
X352552Y-33690D01*
X354255Y-32984D01*
X355717Y-31862D01*
X356839Y-30400D01*
X357545Y-28697D01*
X357785Y-26870D01*
X357635Y-25728D01*
X374335Y-9028D01*
X383684D01*
X399834Y-25178D01*
X399198Y-26278D01*
X387258Y-23074D01*
X387240Y-23073D01*
X387224Y-23065D01*
X386843Y-23047D01*
X386464Y-23022D01*
X386447Y-23028D01*
X386429Y-23027D01*
X386071Y-23155D01*
X385710Y-23277D01*
X385697Y-23289D01*
X385680Y-23295D01*
X384591Y-23949D01*
X384578Y-23960D01*
X384561Y-23967D01*
X384283Y-24228D01*
X384002Y-24483D01*
X383994Y-24499D01*
X383981Y-24511D01*
X383825Y-24858D01*
X383662Y-25203D01*
X383661Y-25220D01*
X383654Y-25237D01*
X375267Y-61421D01*
X374178Y-62075D01*
X364976Y-59609D01*
X361113Y-74026D01*
X360020Y-75119D01*
X358920Y-74484D01*
X363044Y-59092D01*
X353568Y-56553D01*
X353341Y-55177D01*
X354330Y-54517D01*
X355435Y-52863D01*
X355823Y-50912D01*
X355435Y-48961D01*
X354330Y-47307D01*
X353784Y-46942D01*
Y-46669D01*
X353784Y-46669D01*
X353551Y-45498D01*
X352888Y-44506D01*
X352888Y-44506D01*
X323390Y-15008D01*
X323518Y-14364D01*
X323130Y-12413D01*
X322025Y-10759D01*
X320371Y-9654D01*
X318420Y-9266D01*
X316469Y-9654D01*
X314815Y-10759D01*
X314399Y-11381D01*
X312648Y-11739D01*
X312371Y-11553D01*
X310420Y-11165D01*
X308469Y-11553D01*
X306815Y-12659D01*
X305710Y-14312D01*
X305322Y-16263D01*
X305710Y-18214D01*
X306815Y-19868D01*
X308469Y-20973D01*
X310420Y-21361D01*
X312243Y-20999D01*
X337270Y-46025D01*
X337142Y-46669D01*
X337530Y-48620D01*
X338635Y-50274D01*
X340289Y-51379D01*
X342240Y-51767D01*
X344191Y-51379D01*
X344398Y-51241D01*
X345809Y-51825D01*
X346015Y-52863D01*
X346301Y-53291D01*
X345511Y-54394D01*
X332135Y-50809D01*
X327646Y-67562D01*
X323037Y-72171D01*
X321789D01*
X320326Y-72462D01*
X319086Y-73291D01*
X297423Y-94952D01*
X296595Y-96193D01*
X296304Y-97656D01*
Y-124764D01*
X296595Y-126228D01*
X297423Y-127468D01*
X299848Y-129893D01*
X299665Y-130815D01*
X300053Y-132766D01*
X301158Y-134419D01*
X302812Y-135525D01*
X304763Y-135913D01*
X305272Y-135812D01*
X306253Y-136617D01*
Y-147575D01*
X305998Y-148856D01*
Y-151685D01*
X305998Y-151685D01*
X306309Y-153245D01*
X307193Y-154569D01*
X340136Y-187512D01*
X340358Y-188627D01*
X341463Y-190281D01*
X342868Y-191219D01*
X343270Y-192613D01*
X341189Y-194695D01*
X340244Y-195326D01*
X302917D01*
X270097Y-162506D01*
X269875Y-161391D01*
X268770Y-159737D01*
X267116Y-158632D01*
X265165Y-158244D01*
X263214Y-158632D01*
X261560Y-159737D01*
X260455Y-161391D01*
X260067Y-163342D01*
X260455Y-165293D01*
X261560Y-166947D01*
X263214Y-168052D01*
X264329Y-168273D01*
X281328Y-185273D01*
X280842Y-186446D01*
X247488D01*
X247487Y-186446D01*
X246317Y-186679D01*
X245324Y-187342D01*
X245324Y-187342D01*
X196304Y-236362D01*
X195641Y-237355D01*
X195408Y-238525D01*
X195408Y-238526D01*
Y-272614D01*
X192270Y-275751D01*
X191626Y-275623D01*
X189675Y-276012D01*
X188021Y-277117D01*
X186916Y-278771D01*
X186528Y-280721D01*
X186916Y-282672D01*
X188021Y-284326D01*
X189675Y-285431D01*
X191626Y-285819D01*
X193577Y-285431D01*
X195231Y-284326D01*
X196336Y-282672D01*
X196724Y-280721D01*
X196596Y-280077D01*
X200629Y-276044D01*
X200630Y-276044D01*
X201293Y-275051D01*
X201525Y-273881D01*
X201525Y-273881D01*
Y-239792D01*
X248754Y-192563D01*
X282990D01*
X296994Y-206567D01*
X296994Y-206567D01*
X297986Y-207230D01*
X299156Y-207463D01*
X299157Y-207463D01*
X345725D01*
X345725Y-207463D01*
X346895Y-207230D01*
X347888Y-206567D01*
X363368Y-191087D01*
X363368Y-191087D01*
X363757Y-190504D01*
X364810Y-189801D01*
X365887Y-188189D01*
X366030Y-188012D01*
X367243Y-187749D01*
X379052Y-199557D01*
X374336Y-208504D01*
X364307Y-225569D01*
X353501Y-242154D01*
X341940Y-258221D01*
X329650Y-273738D01*
X316656Y-288670D01*
X302986Y-302986D01*
X288670Y-316656D01*
X273738Y-329650D01*
X258221Y-341940D01*
X242154Y-353501D01*
X225569Y-364307D01*
X208504Y-374336D01*
X190993Y-383566D01*
X173075Y-391978D01*
X162910Y-396188D01*
X161772Y-395626D01*
X148730Y-346956D01*
X148027Y-345529D01*
X146830Y-344480D01*
X146830Y-344480D01*
X126152Y-332541D01*
X123892Y-324106D01*
X100709Y-330318D01*
X104592Y-344807D01*
X122680Y-339960D01*
X123620Y-340630D01*
X123449Y-341824D01*
X105109Y-346739D01*
X108992Y-361227D01*
X128046Y-356122D01*
X128986Y-356792D01*
X128815Y-357986D01*
X109509Y-363159D01*
X113392Y-377648D01*
X126839Y-374045D01*
X139487Y-421248D01*
X139865Y-422015D01*
X139358Y-423506D01*
X123567Y-428485D01*
X104851Y-433500D01*
X90538Y-436673D01*
X89448Y-435614D01*
X89378Y-434545D01*
X76762Y-387463D01*
X90209Y-383860D01*
X86327Y-369371D01*
X67021Y-374544D01*
X66276Y-373595D01*
X66755Y-372545D01*
X85809Y-367439D01*
X81927Y-352950D01*
X63587Y-357865D01*
X62842Y-356916D01*
X63321Y-355865D01*
X81410Y-351018D01*
X77527Y-336530D01*
X54345Y-342741D01*
X56605Y-351176D01*
X44667Y-371854D01*
X44666Y-371854D01*
X44155Y-373361D01*
X44259Y-374949D01*
X57303Y-423630D01*
X56589Y-424681D01*
X39536Y-426660D01*
X19789Y-428030D01*
X0Y-428487D01*
X-19789Y-428030D01*
X-39536Y-426660D01*
X-59198Y-424378D01*
X-78734Y-421191D01*
X-98102Y-417106D01*
X-117261Y-412130D01*
X-136170Y-406275D01*
X-154788Y-399552D01*
X-173075Y-391978D01*
X-190993Y-383566D01*
X-208504Y-374336D01*
X-225569Y-364307D01*
X-242154Y-353501D01*
X-258221Y-341940D01*
X-261513Y-339333D01*
X-261586Y-338065D01*
X-219148Y-295626D01*
X-219148Y-295626D01*
X-218264Y-294303D01*
X-217953Y-292742D01*
X-217953Y-292742D01*
Y-268865D01*
X-211779Y-262690D01*
X-228749Y-245720D01*
X-239356Y-256326D01*
X-226114Y-269568D01*
X-226224Y-270717D01*
X-227344Y-271166D01*
X-240770Y-257740D01*
X-251376Y-268347D01*
X-237428Y-282296D01*
X-237538Y-283445D01*
X-238658Y-283894D01*
X-252791Y-269761D01*
X-263397Y-280368D01*
X-253553Y-290212D01*
X-294909Y-331567D01*
X-295514Y-332474D01*
X-296981Y-332852D01*
X-307812Y-322927D01*
X-314662Y-316077D01*
X-321513Y-309226D01*
X-332752Y-296961D01*
X-332400Y-295465D01*
X-331567Y-294908D01*
X-290212Y-253553D01*
X-280368Y-263397D01*
X-269761Y-252791D01*
X-283894Y-238658D01*
X-283445Y-237538D01*
X-282295Y-237428D01*
X-268347Y-251376D01*
X-257740Y-240770D01*
X-271166Y-227344D01*
X-270717Y-226224D01*
X-269568Y-226114D01*
X-256326Y-239356D01*
X-245720Y-228749D01*
X-252305Y-222164D01*
X-252259Y-220895D01*
X-226277Y-198421D01*
X-226170Y-198418D01*
X-225105Y-198509D01*
X-224831Y-198631D01*
X-218084Y-206180D01*
X-212132Y-212132D01*
X-206180Y-218084D01*
X-193628Y-229301D01*
X-184037Y-236950D01*
X-184033Y-237036D01*
X-183004Y-240301D01*
X-181164Y-243188D01*
X-178641Y-245500D01*
X-175604Y-247081D01*
X-172263Y-247822D01*
X-169337Y-247694D01*
X-166737Y-249539D01*
X-152483Y-258496D01*
X-137749Y-266639D01*
X-122582Y-273943D01*
X-107029Y-280385D01*
X-91139Y-285945D01*
X-74962Y-290605D01*
X-58550Y-294351D01*
X-41954Y-297171D01*
X-25225Y-299056D01*
X-8417Y-300000D01*
X8417Y-300000D01*
X25225Y-299056D01*
X41954Y-297171D01*
X58550Y-294351D01*
X74962Y-290605D01*
X91139Y-285945D01*
X107029Y-280385D01*
X122582Y-273943D01*
X137749Y-266639D01*
X152483Y-258496D01*
X166737Y-249539D01*
X180466Y-239797D01*
X193628Y-229301D01*
X206180Y-218084D01*
X212132Y-212132D01*
X218084Y-206180D01*
X229301Y-193628D01*
X239797Y-180466D01*
X249539Y-166737D01*
X258496Y-152483D01*
X266639Y-137749D01*
X273943Y-122582D01*
X280385Y-107029D01*
X285945Y-91139D01*
X290605Y-74962D01*
X294351Y-58550D01*
X297171Y-41954D01*
X299056Y-25225D01*
X300000Y-8417D01*
Y8417D01*
X299056Y25225D01*
X298079Y33894D01*
X299223Y34445D01*
X310431Y23238D01*
D02*
G37*
G36*
X-358965Y-310881D02*
X-358964Y-310881D01*
X-357972Y-311544D01*
X-356801Y-311777D01*
X-355631Y-311544D01*
X-354639Y-310881D01*
X-347685Y-317835D01*
X-311235Y-354285D01*
X-311898Y-355277D01*
X-312131Y-356448D01*
X-311898Y-357618D01*
X-311235Y-358611D01*
X-283666Y-386179D01*
X-283666Y-398646D01*
X-386874Y-501854D01*
X-399340D01*
X-502549Y-398646D01*
Y-386179D01*
X-399340Y-282971D01*
X-386874D01*
X-358965Y-310881D01*
D02*
G37*
G36*
X418125Y-53838D02*
X442921Y-59899D01*
X442706Y-61755D01*
X439381Y-82135D01*
X435119Y-102339D01*
X429929Y-122325D01*
X423820Y-142050D01*
X421819Y-147593D01*
X371844Y-136060D01*
X390720Y-48671D01*
X391789Y-47986D01*
X418125Y-53838D01*
D02*
G37*
G36*
X404455Y-29799D02*
X405011Y-30356D01*
X405254Y-31573D01*
X406138Y-32896D01*
X406138Y-32896D01*
X414309Y-41068D01*
X414309Y-41068D01*
X415632Y-41952D01*
X417193Y-42262D01*
X417193Y-42262D01*
X429921D01*
X429921Y-42262D01*
X431482Y-41952D01*
X432805Y-41068D01*
X432805Y-41068D01*
X435692Y-38180D01*
X445122Y-40710D01*
X445085Y-41243D01*
X443269Y-56905D01*
X442226Y-57630D01*
X418610Y-51857D01*
X418588Y-51856D01*
X418568Y-51847D01*
X392232Y-45995D01*
X392229Y-45995D01*
X392226Y-45993D01*
X391825Y-45986D01*
X391436Y-45977D01*
X391433Y-45978D01*
X391430Y-45978D01*
X391062Y-46122D01*
X390695Y-46265D01*
X390692Y-46267D01*
X390689Y-46268D01*
X389620Y-46953D01*
X389618Y-46955D01*
X389615Y-46957D01*
X389329Y-47234D01*
X389047Y-47505D01*
X389045Y-47508D01*
X389043Y-47510D01*
X388887Y-47870D01*
X388728Y-48234D01*
X388728Y-48237D01*
X388727Y-48240D01*
X369850Y-135630D01*
X369844Y-136014D01*
X369832Y-136397D01*
X369837Y-136411D01*
X369837Y-136426D01*
X369978Y-136783D01*
X370114Y-137141D01*
X370124Y-137152D01*
X370130Y-137165D01*
X370397Y-137442D01*
X370660Y-137721D01*
X370673Y-137727D01*
X370683Y-137737D01*
X371035Y-137890D01*
X371385Y-138047D01*
X420189Y-149310D01*
X420797Y-150425D01*
X416808Y-161472D01*
X410128Y-177598D01*
X375408Y-167408D01*
X370600Y-162600D01*
X369277Y-161716D01*
X367716Y-161406D01*
X367716Y-161406D01*
X360213D01*
X358339Y-159531D01*
Y-143484D01*
X360749Y-133087D01*
X360830Y-133038D01*
X360830D01*
X367042Y-109856D01*
X366186Y-109627D01*
X371403Y-87123D01*
X372491Y-86470D01*
X373253Y-86674D01*
X379465Y-63492D01*
X377031Y-62839D01*
X385640Y-25697D01*
X386729Y-25044D01*
X404455Y-29799D01*
D02*
G37*
G36*
X-89461Y435642D02*
X-89393Y434603D01*
X-76762Y387463D01*
X-90209Y383860D01*
X-86327Y369371D01*
X-67021Y374544D01*
X-66276Y373595D01*
X-66755Y372545D01*
X-85809Y367439D01*
X-81927Y352950D01*
X-63587Y357865D01*
X-62842Y356916D01*
X-63321Y355865D01*
X-81410Y351018D01*
X-77527Y336530D01*
X-54345Y342741D01*
X-56605Y351176D01*
X-44667Y371854D01*
X-44666Y371854D01*
X-44155Y373361D01*
X-44259Y374949D01*
X-44259Y374949D01*
X-57303Y423630D01*
X-56589Y424681D01*
X-39536Y426660D01*
X-19789Y428030D01*
X0Y428487D01*
X19789Y428030D01*
X39536Y426660D01*
X49021Y425559D01*
X49809Y424563D01*
X44531Y379575D01*
X44125Y378752D01*
X41776Y371832D01*
X40351Y364664D01*
X39873Y357372D01*
X40351Y350079D01*
X40804Y347802D01*
X37232Y317357D01*
X33451D01*
X24062Y326746D01*
X24190Y327390D01*
X23802Y329341D01*
X22697Y330995D01*
X21043Y332100D01*
X19092Y332488D01*
X17141Y332100D01*
X15487Y330995D01*
X14382Y329341D01*
X13994Y327390D01*
X14382Y325439D01*
X15487Y323786D01*
X17141Y322681D01*
X19092Y322293D01*
X19736Y322421D01*
X30021Y312136D01*
X30021Y312136D01*
X31013Y311473D01*
X32184Y311240D01*
X32184Y311240D01*
X35559D01*
X36403Y310291D01*
X34956Y297960D01*
X25225Y299056D01*
X8417Y300000D01*
X-8417D01*
X-25225Y299056D01*
X-41954Y297171D01*
X-58550Y294351D01*
X-74962Y290605D01*
X-91139Y285945D01*
X-107029Y280385D01*
X-122582Y273943D01*
X-137749Y266639D01*
X-152483Y258496D01*
X-166737Y249539D01*
X-180466Y239797D01*
X-193628Y229301D01*
X-206180Y218084D01*
X-212132Y212132D01*
X-218084Y206180D01*
X-229301Y193628D01*
X-239797Y180466D01*
X-249539Y166737D01*
X-254070Y159525D01*
X-255857Y158962D01*
X-258744Y157123D01*
X-261057Y154599D01*
X-262637Y151563D01*
X-263378Y148221D01*
X-263229Y144801D01*
X-263051Y144239D01*
X-266639Y137749D01*
X-273943Y122582D01*
X-280385Y107029D01*
X-285945Y91139D01*
X-290605Y74962D01*
X-294351Y58550D01*
X-297171Y41954D01*
X-299056Y25225D01*
X-300000Y8417D01*
Y-8417D01*
X-299056Y-25225D01*
X-297171Y-41954D01*
X-295462Y-52013D01*
X-296590Y-52596D01*
X-348258Y-928D01*
Y2121D01*
X-348607Y3877D01*
X-349602Y5366D01*
X-358064Y13828D01*
X-358272Y14874D01*
X-359488Y16693D01*
X-361307Y17909D01*
X-363453Y18336D01*
X-365599Y17909D01*
X-367418Y16693D01*
X-368634Y14874D01*
X-369061Y12728D01*
X-368634Y10582D01*
X-367418Y8763D01*
X-365599Y7547D01*
X-364552Y7339D01*
X-357434Y221D01*
Y-2828D01*
X-357085Y-4584D01*
X-356091Y-6073D01*
X-355276Y-6887D01*
X-355645Y-8103D01*
X-356407Y-8254D01*
X-358226Y-9470D01*
X-359441Y-11289D01*
X-359868Y-13435D01*
X-359441Y-15581D01*
X-358226Y-17400D01*
X-356407Y-18616D01*
X-355360Y-18824D01*
X-326173Y-48012D01*
X-326982Y-48998D01*
X-329437Y-47358D01*
X-335991Y-44125D01*
X-342912Y-41776D01*
X-350079Y-40351D01*
X-357372Y-39873D01*
X-364664Y-40351D01*
X-371832Y-41776D01*
X-378752Y-44125D01*
X-385307Y-47358D01*
X-391383Y-51418D01*
X-396878Y-56237D01*
X-401696Y-61731D01*
X-405756Y-67807D01*
X-408988Y-74362D01*
X-411338Y-81282D01*
X-412763Y-88450D01*
X-413241Y-95742D01*
X-412763Y-103035D01*
X-411338Y-110202D01*
X-408988Y-117123D01*
X-405756Y-123677D01*
X-401696Y-129754D01*
X-396878Y-135248D01*
X-391383Y-140067D01*
X-385307Y-144127D01*
X-378752Y-147359D01*
X-371832Y-149708D01*
X-364664Y-151134D01*
X-357372Y-151612D01*
X-350079Y-151134D01*
X-342912Y-149708D01*
X-335991Y-147359D01*
X-333782Y-146269D01*
X-333042Y-147302D01*
X-339120Y-153380D01*
X-340115Y-154868D01*
X-340464Y-156624D01*
Y-229810D01*
X-340115Y-231565D01*
X-339120Y-233054D01*
X-334194Y-237980D01*
X-333985Y-239027D01*
X-332770Y-240846D01*
X-330951Y-242062D01*
X-328805Y-242488D01*
X-326659Y-242062D01*
X-324839Y-240846D01*
X-323624Y-239027D01*
X-323197Y-236881D01*
X-323624Y-234735D01*
X-324839Y-232915D01*
X-326659Y-231700D01*
X-327705Y-231492D01*
X-331288Y-227909D01*
Y-158525D01*
X-319606Y-146843D01*
X-318433Y-147329D01*
Y-160905D01*
X-319025Y-161792D01*
X-319452Y-163938D01*
X-319025Y-166084D01*
X-317810Y-167903D01*
X-315991Y-169119D01*
X-313845Y-169546D01*
X-311699Y-169119D01*
X-309879Y-167903D01*
X-308664Y-166084D01*
X-308237Y-163938D01*
X-308664Y-161792D01*
X-309256Y-160905D01*
Y-146393D01*
X-288878Y-126014D01*
X-287883Y-124525D01*
X-287534Y-122770D01*
Y-90167D01*
X-286276Y-89990D01*
X-285945Y-91139D01*
X-280385Y-107029D01*
X-273943Y-122582D01*
X-266639Y-137749D01*
X-258496Y-152483D01*
X-249539Y-166737D01*
X-239797Y-180466D01*
X-229301Y-193628D01*
X-227529Y-195611D01*
X-227611Y-196878D01*
X-254410Y-220059D01*
X-262690Y-211779D01*
X-268865Y-217953D01*
X-292742Y-217953D01*
X-292742Y-217953D01*
X-294303Y-218264D01*
X-295626Y-219148D01*
X-338065Y-261586D01*
X-339333Y-261513D01*
X-341940Y-258221D01*
X-353501Y-242154D01*
X-364307Y-225569D01*
X-374336Y-208504D01*
X-383566Y-190993D01*
X-391978Y-173075D01*
X-399552Y-154788D01*
X-406275Y-136170D01*
X-412130Y-117261D01*
X-417106Y-98102D01*
X-421191Y-78734D01*
X-424378Y-59198D01*
X-426660Y-39536D01*
X-428030Y-19789D01*
X-428487Y0D01*
X-428030Y19789D01*
X-426660Y39536D01*
X-424759Y55917D01*
X-423708Y56630D01*
X-364342Y40724D01*
X-362755Y40619D01*
X-361248Y41131D01*
X-361248Y41131D01*
X-340569Y53070D01*
X-332135Y50809D01*
X-325923Y73992D01*
X-340412Y77874D01*
X-345259Y59786D01*
X-346309Y59307D01*
X-347258Y60052D01*
X-342344Y78392D01*
X-356833Y82274D01*
X-361938Y63220D01*
X-362989Y62741D01*
X-363937Y63486D01*
X-358764Y82792D01*
X-373253Y86674D01*
X-376856Y73227D01*
X-434740Y88736D01*
X-435793Y88805D01*
X-436858Y89900D01*
X-434033Y103140D01*
X-428810Y123061D01*
X-423873Y138877D01*
X-422407Y139312D01*
X-421482Y138856D01*
X-421468Y138853D01*
X-363438Y123303D01*
X-367042Y109856D01*
X-352553Y105974D01*
X-347380Y125280D01*
X-346186Y125450D01*
X-345515Y124510D01*
X-350621Y105456D01*
X-336132Y101574D01*
X-331218Y119914D01*
X-330024Y120085D01*
X-329353Y119144D01*
X-334200Y101056D01*
X-319711Y97174D01*
X-313500Y120356D01*
X-321934Y122616D01*
X-333873Y143294D01*
X-333873Y143295D01*
X-334922Y144491D01*
X-336349Y145195D01*
X-336350D01*
X-395885Y161147D01*
X-396446Y162286D01*
X-391978Y173075D01*
X-383566Y190993D01*
X-374336Y208504D01*
X-364307Y225569D01*
X-353501Y242154D01*
X-341940Y258221D01*
X-329650Y273738D01*
X-316656Y288670D01*
X-302986Y302986D01*
X-288670Y316656D01*
X-273738Y329650D01*
X-258221Y341940D01*
X-242154Y353501D01*
X-225569Y364307D01*
X-208504Y374336D01*
X-190993Y383566D01*
X-173075Y391978D01*
X-162911Y396188D01*
X-161772Y395626D01*
X-148730Y346956D01*
X-148027Y345529D01*
X-146830Y344480D01*
X-146830Y344480D01*
X-126152Y332541D01*
X-123892Y324106D01*
X-100709Y330318D01*
X-104592Y344807D01*
X-122680Y339960D01*
X-123620Y340630D01*
X-123449Y341824D01*
X-105109Y346739D01*
X-108992Y361227D01*
X-128046Y356122D01*
X-128986Y356792D01*
X-128815Y357986D01*
X-109509Y363159D01*
X-113392Y377648D01*
X-126839Y374045D01*
X-139472Y421194D01*
X-139984Y422232D01*
X-139602Y423679D01*
X-121418Y429278D01*
X-101477Y434424D01*
X-90560Y436710D01*
X-89461Y435642D01*
D02*
G37*
G36*
X216905Y384843D02*
X224985Y380262D01*
X234830Y370451D01*
X234831Y369181D01*
X232638Y366988D01*
X213900Y348250D01*
X193040Y369110D01*
X211779Y387848D01*
X216905Y384843D01*
D02*
G37*
G36*
X121681Y281287D02*
X121681Y281287D01*
X122674Y280623D01*
X123844Y280391D01*
X133543D01*
X133543Y280390D01*
X134713Y280623D01*
X135706Y281287D01*
X140567Y286148D01*
X159246D01*
X175100Y270294D01*
X176092Y269631D01*
X177262Y269399D01*
X183037D01*
X183598Y268260D01*
X183390Y267988D01*
X182684Y266285D01*
X182444Y264457D01*
X182684Y262630D01*
X183390Y260927D01*
X184512Y259465D01*
X185273Y258704D01*
Y237428D01*
X184128Y236877D01*
X180466Y239797D01*
X166737Y249539D01*
X152483Y258496D01*
X137749Y266639D01*
X122582Y273943D01*
X107029Y280385D01*
X91139Y285945D01*
X74962Y290605D01*
X72174Y291242D01*
X72317Y292512D01*
X110456D01*
X121681Y281287D01*
D02*
G37*
G36*
X178155Y404374D02*
X195716Y396185D01*
X208913Y389315D01*
X209106Y388060D01*
X191598Y370552D01*
X191156Y369890D01*
X191001Y369110D01*
X191156Y368329D01*
X191598Y367668D01*
X191598Y367668D01*
X212458Y346808D01*
X212458Y346808D01*
X213120Y346366D01*
X213900Y346211D01*
X214680Y346366D01*
X215342Y346808D01*
X234080Y365546D01*
X234080Y365546D01*
X236273Y367739D01*
X236273Y367740D01*
X236274Y367741D01*
X236496Y368073D01*
X236715Y368401D01*
X236715Y368402D01*
X236716Y368402D01*
X236792Y368786D01*
X236870Y369181D01*
X236870Y369182D01*
X236870Y369183D01*
X236869Y370453D01*
X236869Y370454D01*
X236869Y370455D01*
X236791Y370844D01*
X236713Y371233D01*
X236713Y371234D01*
X236712Y371235D01*
X236495Y371559D01*
X236271Y371894D01*
X236350Y371996D01*
X237043Y372861D01*
X246025Y367139D01*
X261897Y356025D01*
X277269Y344230D01*
X292112Y331775D01*
X306398Y318685D01*
X313248Y311834D01*
X320099Y304984D01*
X333189Y290698D01*
X345644Y275855D01*
X357439Y260483D01*
X368553Y244611D01*
X378964Y228269D01*
X388652Y211488D01*
X397599Y194302D01*
X405788Y176741D01*
X413203Y158840D01*
X419830Y140632D01*
X425657Y122152D01*
X430671Y103436D01*
X434865Y84519D01*
X438230Y65437D01*
X439059Y59142D01*
X437920Y58580D01*
X426367Y70132D01*
X426146Y71247D01*
X425040Y72901D01*
X423386Y74006D01*
X421436Y74394D01*
X419485Y74006D01*
X418451Y73315D01*
X417180Y73994D01*
Y119249D01*
X417180Y119249D01*
X416948Y120419D01*
X416285Y121412D01*
X416285Y121412D01*
X383041Y154655D01*
X382049Y155318D01*
X380878Y155551D01*
X380878Y155551D01*
X311223D01*
X246329Y220444D01*
X246575Y221678D01*
X246187Y223629D01*
X245082Y225283D01*
X243428Y226388D01*
X241477Y226776D01*
X239526Y226388D01*
X237872Y225283D01*
X237213Y224297D01*
X235681Y223909D01*
X235564Y223939D01*
X235333Y224111D01*
Y240780D01*
X235100Y241951D01*
X234437Y242943D01*
X230205Y247175D01*
X239356Y256326D01*
X223307Y272375D01*
X223769Y273553D01*
X224837Y273674D01*
X240770Y257740D01*
X251376Y268347D01*
X234406Y285318D01*
X231060Y281971D01*
X217357D01*
X211131Y288198D01*
X211616Y289371D01*
X236663D01*
X237189Y288101D01*
X235820Y286732D01*
X252791Y269761D01*
X257405Y274375D01*
X258391Y273566D01*
X258334Y273480D01*
X257946Y271529D01*
X258334Y269578D01*
X259439Y267924D01*
X261093Y266819D01*
X263044Y266431D01*
X264995Y266819D01*
X266649Y267924D01*
X267013Y268470D01*
X272383D01*
X278912Y261942D01*
X269761Y252791D01*
X275002Y247550D01*
X273588Y246136D01*
X268347Y251376D01*
X257740Y240770D01*
X262981Y235529D01*
X261567Y234115D01*
X256326Y239356D01*
X245720Y228749D01*
X262690Y211779D01*
X273297Y222385D01*
X268056Y227626D01*
X269470Y229040D01*
X274711Y223799D01*
X275022Y224110D01*
X283507Y215625D01*
X284969Y214503D01*
X286672Y213797D01*
X288500Y213557D01*
X292646D01*
X336187Y170016D01*
X337649Y168895D01*
X339352Y168189D01*
X341179Y167949D01*
X343006Y168189D01*
X344709Y168895D01*
X346171Y170016D01*
X347294Y171479D01*
X347999Y173182D01*
X348239Y175009D01*
X347999Y176836D01*
X347294Y178539D01*
X346171Y180001D01*
X300563Y225610D01*
X299101Y226732D01*
X297398Y227437D01*
X295571Y227678D01*
X291424D01*
X285007Y234095D01*
X285318Y234406D01*
X280077Y239647D01*
X281491Y241061D01*
X286732Y235820D01*
X295883Y244971D01*
X367558Y173295D01*
X367547Y173241D01*
X367935Y171290D01*
X369040Y169636D01*
X370694Y168531D01*
X372645Y168143D01*
X374596Y168531D01*
X376250Y169636D01*
X377355Y171290D01*
X377743Y173241D01*
X377355Y175192D01*
X376250Y176846D01*
X375792Y177152D01*
Y178193D01*
X375947Y178576D01*
X376991Y180140D01*
X377379Y182090D01*
X376991Y184041D01*
X375886Y185695D01*
X374232Y186800D01*
X372281Y187188D01*
X370330Y186800D01*
X369150Y186012D01*
X317014Y238148D01*
Y274357D01*
X317014Y274357D01*
X316781Y275528D01*
X316118Y276520D01*
X316118Y276520D01*
X299126Y293512D01*
X299254Y294156D01*
X298866Y296107D01*
X297761Y297761D01*
X296107Y298866D01*
X294156Y299254D01*
X292206Y298866D01*
X290552Y297761D01*
X289447Y296107D01*
X289058Y294156D01*
X289447Y292206D01*
X290552Y290552D01*
X292206Y289447D01*
X294156Y289058D01*
X294800Y289187D01*
X310897Y273090D01*
Y240268D01*
X309723Y239782D01*
X275813Y273692D01*
X274821Y274355D01*
X273650Y274588D01*
X273650Y274588D01*
X267013D01*
X266649Y275134D01*
X264995Y276239D01*
X263044Y276627D01*
X261093Y276239D01*
X261007Y276182D01*
X260197Y277168D01*
X263397Y280368D01*
X246427Y297338D01*
X244007Y294919D01*
X242593Y296333D01*
X242593Y296333D01*
X241270Y297217D01*
X239709Y297528D01*
X239709Y297528D01*
X210286D01*
X204409Y303404D01*
X203086Y304288D01*
X201525Y304599D01*
X201525Y304599D01*
X190487D01*
X170935Y324151D01*
Y406222D01*
X171991Y406927D01*
X178155Y404374D01*
D02*
G37*
%LPC*%
G36*
X-95742Y-301502D02*
X-103035Y-301980D01*
X-110202Y-303406D01*
X-117123Y-305755D01*
X-123677Y-308987D01*
X-129754Y-313048D01*
X-135248Y-317866D01*
X-140067Y-323360D01*
X-144127Y-329437D01*
X-147359Y-335991D01*
X-149708Y-342912D01*
X-151134Y-350079D01*
X-151612Y-357372D01*
X-151134Y-364664D01*
X-149708Y-371832D01*
X-147359Y-378752D01*
X-144127Y-385307D01*
X-140067Y-391383D01*
X-135248Y-396878D01*
X-129754Y-401696D01*
X-123677Y-405756D01*
X-117123Y-408988D01*
X-110202Y-411338D01*
X-103035Y-412763D01*
X-95742Y-413241D01*
X-88450Y-412763D01*
X-81282Y-411338D01*
X-74362Y-408988D01*
X-67807Y-405756D01*
X-61731Y-401696D01*
X-56237Y-396878D01*
X-51418Y-391383D01*
X-47358Y-385307D01*
X-44125Y-378752D01*
X-41776Y-371832D01*
X-40351Y-364664D01*
X-39873Y-357372D01*
X-40351Y-350079D01*
X-41776Y-342912D01*
X-44125Y-335991D01*
X-47358Y-329437D01*
X-51418Y-323360D01*
X-56237Y-317866D01*
X-61731Y-313048D01*
X-67807Y-308987D01*
X-74362Y-305755D01*
X-81282Y-303406D01*
X-88450Y-301980D01*
X-95742Y-301502D01*
D02*
G37*
G36*
X261630Y-205760D02*
X254337Y-206238D01*
X247169Y-207664D01*
X240249Y-210013D01*
X233695Y-213245D01*
X227618Y-217305D01*
X222124Y-222124D01*
X217305Y-227618D01*
X213245Y-233695D01*
X210013Y-240249D01*
X207664Y-247169D01*
X206238Y-254337D01*
X205760Y-261630D01*
X206238Y-268922D01*
X207664Y-276090D01*
X210013Y-283010D01*
X213245Y-289564D01*
X217305Y-295641D01*
X222124Y-301135D01*
X227618Y-305954D01*
X233695Y-310014D01*
X240249Y-313246D01*
X247169Y-315595D01*
X254337Y-317021D01*
X261630Y-317499D01*
X268922Y-317021D01*
X276090Y-315595D01*
X283010Y-313246D01*
X289564Y-310014D01*
X295641Y-305954D01*
X301135Y-301135D01*
X305954Y-295641D01*
X310014Y-289564D01*
X313246Y-283010D01*
X315595Y-276090D01*
X317021Y-268922D01*
X317499Y-261630D01*
X317021Y-254337D01*
X315595Y-247169D01*
X313246Y-240249D01*
X310014Y-233695D01*
X305954Y-227618D01*
X301135Y-222124D01*
X295641Y-217305D01*
X289564Y-213245D01*
X283010Y-210013D01*
X276090Y-207664D01*
X268922Y-206238D01*
X261630Y-205760D01*
D02*
G37*
G36*
X-416148Y-346088D02*
X-422540Y-352480D01*
X-418977Y-356044D01*
X-412584Y-349652D01*
X-416148Y-346088D01*
D02*
G37*
G36*
X-383621Y-304475D02*
X-396349D01*
X-398495Y-304901D01*
X-400314Y-306117D01*
X-410921Y-316723D01*
X-412137Y-318543D01*
X-412564Y-320689D01*
Y-330588D01*
X-412137Y-332734D01*
X-410921Y-334554D01*
X-409102Y-335769D01*
X-406956Y-336196D01*
X-403046D01*
X-402520Y-337466D01*
X-409784Y-344730D01*
X-406043Y-348471D01*
Y-354397D01*
X-407313Y-354923D01*
X-410463Y-351773D01*
X-417916Y-359226D01*
X-418977Y-358166D01*
X-420037Y-359226D01*
X-424662Y-354602D01*
X-431054Y-360994D01*
X-426012Y-366036D01*
X-426498Y-367210D01*
X-433119D01*
X-435070Y-367598D01*
X-436724Y-368703D01*
X-439552Y-371531D01*
X-440190Y-370893D01*
X-446913Y-377616D01*
X-447330Y-377895D01*
X-447609Y-378313D01*
X-454332Y-385036D01*
X-454055Y-385313D01*
X-466075Y-397334D01*
X-467291Y-399153D01*
X-467718Y-401299D01*
Y-422512D01*
X-467291Y-424658D01*
X-466075Y-426478D01*
X-438498Y-454055D01*
X-436679Y-455270D01*
X-434533Y-455697D01*
X-432387Y-455270D01*
X-430568Y-454055D01*
X-429352Y-452235D01*
X-428925Y-450089D01*
X-429352Y-447943D01*
X-430568Y-446124D01*
X-456502Y-420189D01*
Y-403622D01*
X-454558Y-401678D01*
X-453288Y-402204D01*
Y-408708D01*
X-453017Y-410073D01*
X-452243Y-411231D01*
X-425373Y-438101D01*
X-424216Y-438875D01*
X-422850Y-439146D01*
X-418607D01*
X-417242Y-438875D01*
X-416084Y-438101D01*
X-407261Y-429278D01*
X-398824Y-437715D01*
X-398824Y-437715D01*
X-389632Y-446907D01*
X-387912Y-445188D01*
X-387559Y-445542D01*
X-386401Y-446315D01*
X-385036Y-446587D01*
X-380793D01*
X-379427Y-446315D01*
X-378270Y-445542D01*
X-366956Y-434228D01*
X-366182Y-433070D01*
X-365911Y-431705D01*
Y-428584D01*
X-364641Y-428058D01*
X-363822Y-428876D01*
X-363552Y-428606D01*
X-359687Y-432471D01*
Y-444079D01*
X-359221Y-446420D01*
X-357895Y-448405D01*
X-356143Y-449576D01*
X-356302Y-450715D01*
X-356354Y-450846D01*
X-363115D01*
X-365261Y-451273D01*
X-367080Y-452488D01*
X-392536Y-477944D01*
X-393752Y-479763D01*
X-394179Y-481909D01*
X-393752Y-484055D01*
X-392536Y-485874D01*
X-390717Y-487090D01*
X-388571Y-487517D01*
X-386425Y-487090D01*
X-384606Y-485874D01*
X-360792Y-462061D01*
X-352509D01*
X-350363Y-461634D01*
X-348543Y-460419D01*
X-319890Y-431765D01*
X-318674Y-429946D01*
X-318247Y-427800D01*
Y-389227D01*
X-318674Y-387081D01*
X-319890Y-385262D01*
X-324546Y-380605D01*
X-323953Y-379403D01*
X-322441Y-379602D01*
X-320830Y-379390D01*
X-309098Y-391122D01*
X-307278Y-392338D01*
X-305133Y-392765D01*
X-302987Y-392338D01*
X-301167Y-391122D01*
X-299952Y-389303D01*
X-299525Y-387157D01*
X-299952Y-385011D01*
X-301167Y-383192D01*
X-313418Y-370941D01*
X-313363Y-370524D01*
X-313672Y-368175D01*
X-314579Y-365985D01*
X-316022Y-364105D01*
X-327336Y-352791D01*
X-329216Y-351349D01*
X-331405Y-350442D01*
X-333754Y-350133D01*
X-336104Y-350442D01*
X-338293Y-351349D01*
X-340173Y-352791D01*
X-341616Y-354672D01*
X-342523Y-356861D01*
X-342832Y-359210D01*
X-342523Y-361560D01*
X-342239Y-362244D01*
X-343316Y-362963D01*
X-362963Y-343316D01*
X-362244Y-342239D01*
X-361560Y-342523D01*
X-359210Y-342832D01*
X-356861Y-342523D01*
X-354672Y-341616D01*
X-352791Y-340173D01*
X-351349Y-338293D01*
X-350442Y-336104D01*
X-350133Y-333754D01*
X-350442Y-331405D01*
X-351349Y-329216D01*
X-352791Y-327336D01*
X-364105Y-316022D01*
X-365985Y-314579D01*
X-368175Y-313672D01*
X-370524Y-313363D01*
X-371909Y-313545D01*
X-379740Y-306035D01*
X-380614Y-305477D01*
X-381475Y-304901D01*
X-381534Y-304890D01*
X-381584Y-304858D01*
X-382605Y-304677D01*
X-383621Y-304475D01*
D02*
G37*
%LPD*%
G36*
X-376266Y-389701D02*
X-374612Y-390806D01*
X-372661Y-391194D01*
X-363321D01*
X-359580Y-394935D01*
X-351862Y-387217D01*
X-337720Y-401359D01*
X-335900Y-402575D01*
X-333754Y-403002D01*
X-331608Y-402575D01*
X-330733Y-401990D01*
X-329463Y-402669D01*
Y-425477D01*
X-346278Y-442293D01*
X-347452Y-441807D01*
Y-429937D01*
X-347917Y-427596D01*
X-349244Y-425611D01*
X-354900Y-419954D01*
X-353598Y-418651D01*
X-353216Y-419033D01*
X-348591Y-414409D01*
X-355337Y-407663D01*
X-362083Y-400917D01*
X-366707Y-405542D01*
X-366325Y-405924D01*
X-376148Y-415746D01*
X-381106Y-410789D01*
X-380386Y-409712D01*
X-380337Y-409733D01*
X-379607Y-409829D01*
Y-402912D01*
X-386524D01*
X-386427Y-403642D01*
X-386407Y-403691D01*
X-387484Y-404411D01*
X-396539Y-395356D01*
Y-387158D01*
X-388794Y-379412D01*
X-400107Y-368099D01*
X-411421Y-379412D01*
X-403676Y-387158D01*
Y-393591D01*
X-404946Y-394117D01*
X-411552Y-387510D01*
X-411873Y-387800D01*
X-413031Y-387026D01*
X-414396Y-386754D01*
X-421601Y-386754D01*
X-421986Y-385484D01*
X-421006Y-384829D01*
X-419790Y-383010D01*
X-419363Y-380864D01*
X-419790Y-378718D01*
X-419919Y-378526D01*
X-419320Y-377406D01*
X-415441D01*
X-413490Y-377018D01*
X-411836Y-375912D01*
X-400946Y-365022D01*
X-376266Y-389701D01*
D02*
G37*
%LPC*%
G36*
X-347531Y-401978D02*
X-352155Y-406602D01*
X-346470Y-412287D01*
X-341846Y-407663D01*
X-347531Y-401978D01*
D02*
G37*
G36*
X-379607Y-392996D02*
X-380337Y-393092D01*
X-382414Y-393953D01*
X-384198Y-395322D01*
X-385567Y-397106D01*
X-386427Y-399183D01*
X-386524Y-399912D01*
X-379607D01*
Y-392996D01*
D02*
G37*
G36*
X-376607D02*
Y-399912D01*
X-369691D01*
X-369787Y-399183D01*
X-370648Y-397106D01*
X-372016Y-395322D01*
X-373801Y-393953D01*
X-375878Y-393092D01*
X-376607Y-392996D01*
D02*
G37*
G36*
X-369691Y-402912D02*
X-376607D01*
Y-409829D01*
X-375878Y-409733D01*
X-373801Y-408872D01*
X-372016Y-407503D01*
X-370648Y-405719D01*
X-369787Y-403642D01*
X-369691Y-402912D01*
D02*
G37*
G36*
X-355337Y-394171D02*
X-359962Y-398796D01*
X-354276Y-404481D01*
X-349652Y-399856D01*
X-355337Y-394171D01*
D02*
G37*
G36*
X-261630Y317499D02*
X-268922Y317021D01*
X-276090Y315595D01*
X-283010Y313246D01*
X-289564Y310014D01*
X-295641Y305954D01*
X-301135Y301135D01*
X-305954Y295641D01*
X-310014Y289564D01*
X-313246Y283010D01*
X-315595Y276090D01*
X-317021Y268922D01*
X-317499Y261630D01*
X-317021Y254337D01*
X-315595Y247169D01*
X-313246Y240249D01*
X-310014Y233695D01*
X-305954Y227618D01*
X-301135Y222124D01*
X-295641Y217305D01*
X-289564Y213245D01*
X-283010Y210013D01*
X-276090Y207664D01*
X-268922Y206238D01*
X-261630Y205760D01*
X-254337Y206238D01*
X-247169Y207664D01*
X-240249Y210013D01*
X-233695Y213245D01*
X-227618Y217305D01*
X-222124Y222124D01*
X-217305Y227618D01*
X-213245Y233695D01*
X-210013Y240249D01*
X-207664Y247169D01*
X-206238Y254337D01*
X-205760Y261630D01*
X-206238Y268922D01*
X-207664Y276090D01*
X-210013Y283010D01*
X-213245Y289564D01*
X-217305Y295641D01*
X-222124Y301135D01*
X-227618Y305954D01*
X-233695Y310014D01*
X-240249Y313246D01*
X-247169Y315595D01*
X-254337Y317021D01*
X-261630Y317499D01*
D02*
G37*
%LPD*%
D10*
X-431849Y73147D02*
G03*
X-336889Y-279910I431849J-73147D01*
G01*
X-268234Y-338636D02*
G03*
X62537Y-427450I268234J338636D01*
G01*
X143479Y-420178D02*
G03*
X397972Y-196861I-143479J420178D01*
G01*
X151430Y-410990D02*
G03*
X391049Y-197292I-151430J410990D01*
G01*
X-435910Y84370D02*
G03*
X-334495Y-291975I435910J-84370D01*
G01*
X-427630Y61291D02*
G03*
X-338779Y-268053I427630J-61291D01*
G01*
X154320Y403497D02*
G03*
X-62528Y427451I-154320J-403497D01*
G01*
X159319Y-401549D02*
G03*
X383208Y-199439I-159319J401549D01*
G01*
X166879Y411446D02*
G03*
X-84898Y435808I-166879J-411446D01*
G01*
X-159154Y401614D02*
G03*
X-401732Y158857I159154J-401614D01*
G01*
X-158971Y401687D02*
G03*
X-159154Y401614I158971J-401687D01*
G01*
X-151324Y411029D02*
G03*
X-410946Y151550I151324J-411029D01*
G01*
X-420412Y142792D02*
G03*
X-420504Y142520I420412J-142792D01*
G01*
X-143431Y420195D02*
G03*
X-420412Y142792I143431J-420195D01*
G01*
X-280122Y-336713D02*
G03*
X74039Y-431697I280122J336713D01*
G01*
X160501Y407533D02*
G03*
X-74039Y431697I-160501J-407533D01*
G01*
X-292025Y-334451D02*
G03*
X85457Y-435698I292025J334451D01*
G01*
X-432765Y-416502D02*
X-424280D01*
X-409431Y-426401D02*
Y-417916D01*
X-418607Y-435578D02*
X-409431Y-426401D01*
X-422850Y-435578D02*
X-418607D01*
X-449720Y-408708D02*
X-422850Y-435578D01*
X-449720Y-408708D02*
Y-401637D01*
X-432094Y-384010D01*
X-428117D01*
X-424971Y-380864D01*
X-400107Y-396834D02*
Y-379412D01*
X-399531Y-429230D02*
X-391753Y-437008D01*
X-429937Y-393167D02*
X-427093Y-390323D01*
X-414396Y-390323D02*
X-411552Y-393167D01*
X-427093Y-390323D02*
X-414396Y-390323D01*
X-400945Y-427816D02*
X-399531Y-429230D01*
X-406956Y-409784D02*
X-404127Y-412613D01*
X-410491Y-409784D02*
X-406956D01*
X-420391Y-419684D02*
X-410491Y-409784D01*
X-420391Y-425341D02*
Y-419684D01*
X-380793Y-443018D02*
X-369479Y-431705D01*
X-440543Y-403774D02*
X-439129Y-405188D01*
X-422159D01*
X-389985Y-438069D02*
X-385036Y-443018D01*
X-391399Y-436654D02*
X-389985Y-438069D01*
X-385036Y-443018D02*
X-380793D01*
X-369479Y-431705D02*
Y-427462D01*
X-400107Y-396834D02*
X-369479Y-427462D01*
X-400945Y-427816D02*
Y-426401D01*
X-390339Y-417209D02*
Y-415795D01*
X-398824Y-407309D02*
X-390339Y-415795D01*
X-409820Y-402042D02*
Y-396314D01*
X-411552Y-394581D02*
X-409820Y-396314D01*
X-424280Y-416502D02*
X-409820Y-402042D01*
X-422159Y-405188D02*
X-416855Y-399885D01*
X-411552Y-394581D02*
Y-393167D01*
X-422159Y-427108D02*
X-421082Y-426032D01*
X-420391Y-425341D01*
X-336583Y-336583D02*
X-306884Y-306884D01*
X-390339Y-417209D02*
X-380086Y-427462D01*
D11*
X-354276Y-406602D02*
D03*
X-364883Y-417209D02*
D03*
D12*
X-380086Y-428169D02*
D03*
X-389985Y-438069D02*
D03*
X-386096Y-359933D02*
D03*
X-400946Y-345084D02*
D03*
X-374782Y-371247D02*
D03*
X-359933Y-386096D02*
D03*
D13*
X-388925Y-418623D02*
D03*
X-399531Y-429230D02*
D03*
X-429937Y-393167D02*
D03*
X-440543Y-403774D02*
D03*
D14*
X-418977Y-358166D02*
D03*
X-443018Y-382207D02*
D03*
D15*
X-431689Y-415425D02*
D03*
X-421082Y-426032D02*
D03*
D16*
X-364867Y-328098D02*
D03*
X-328098Y-364867D02*
D03*
D17*
X271529Y237588D02*
D03*
X283550Y249609D02*
D03*
X259508Y225567D02*
D03*
X225567Y259508D02*
D03*
X249609Y283550D02*
D03*
X237588Y271529D02*
D03*
X-271529Y-237588D02*
D03*
X-283550Y-249609D02*
D03*
X-259508Y-225567D02*
D03*
X-225567Y-259508D02*
D03*
X-249609Y-283550D02*
D03*
X-237588Y-271529D02*
D03*
D18*
X-72277Y363301D02*
D03*
X-76677Y379721D02*
D03*
X-67877Y346880D02*
D03*
X-114242Y334457D02*
D03*
X-123041Y367298D02*
D03*
X-118642Y350877D02*
D03*
X72277Y-363301D02*
D03*
X76677Y-379721D02*
D03*
X67877Y-346880D02*
D03*
X114242Y-334457D02*
D03*
X123041Y-367298D02*
D03*
X118642Y-350877D02*
D03*
D19*
X-340271Y115106D02*
D03*
X-356691Y119506D02*
D03*
X-323850Y110706D02*
D03*
X-336273Y64342D02*
D03*
X-369115Y73142D02*
D03*
X-352694Y68742D02*
D03*
X340271Y-115106D02*
D03*
X356691Y-119506D02*
D03*
X323850Y-110706D02*
D03*
X336273Y-64342D02*
D03*
X369115Y-73142D02*
D03*
X352694Y-68742D02*
D03*
D20*
X-422159Y-405188D02*
D03*
X-411552Y-394581D02*
D03*
X-398824Y-407309D02*
D03*
X-409431Y-417916D02*
D03*
D21*
X-416855Y-399885D02*
D03*
X-404127Y-412613D02*
D03*
D22*
X-359902Y-371247D02*
X-333754Y-397394D01*
X-374782Y-371247D02*
X-359902D01*
X-352509Y-456453D02*
X-323855Y-427800D01*
Y-389227D01*
X-341692Y-371390D02*
X-323855Y-389227D01*
X-383621Y-310082D02*
X-365574Y-327391D01*
X-396349Y-310082D02*
X-383621D01*
X-462110Y-422512D02*
X-434533Y-450089D01*
X-462110Y-422512D02*
Y-401299D01*
X-443018Y-382207D01*
X-433826Y-397056D02*
X-429937Y-393167D01*
X-391896Y-322314D02*
Y-321730D01*
Y-322314D02*
X-342819Y-371390D01*
X-341692D01*
X-406956Y-320689D02*
X-396349Y-310082D01*
X-406956Y-330588D02*
Y-320689D01*
X-386096Y-359933D02*
X-383621Y-357458D01*
Y-345438D01*
X-398471Y-330588D02*
X-383621Y-345438D01*
X-406956Y-330588D02*
X-398471D01*
X-363115Y-456453D02*
X-352509D01*
X-388571Y-481909D02*
X-363115Y-456453D01*
X-328098Y-364867D02*
X-327422D01*
X-305133Y-387157D01*
D23*
X-433119Y-372308D02*
X-415441D01*
X-442311Y-381500D02*
X-433119Y-372308D01*
X-415441D02*
X-400946Y-357812D01*
X-443018Y-382207D02*
X-442311Y-381500D01*
X-440897D01*
X-372661Y-386096D02*
X-359933D01*
X-400946Y-357812D02*
X-372661Y-386096D01*
X-400946Y-345084D02*
X-400946Y-349680D01*
Y-357812D02*
Y-349680D01*
X-380086Y-430998D02*
Y-427462D01*
X-443725Y-381500D02*
X-442311D01*
D24*
X128837Y-365745D02*
X143426Y-420192D01*
X-72277Y363301D02*
X-66481Y364854D01*
X-59411Y377101D01*
X-67877Y346880D02*
X-63048Y348174D01*
X-48198Y373894D01*
X-85454Y435659D02*
X-70882Y381274D01*
X-62503Y427281D02*
X-48198Y373894D01*
X-124437Y349324D02*
X-118642Y350877D01*
X-136685Y356395D02*
X-124437Y349324D01*
X-119071Y333162D02*
X-114242Y334457D01*
X-144791Y348012D02*
X-119071Y333162D01*
X-143412Y420138D02*
X-128837Y365745D01*
X-354247Y62946D02*
X-352694Y68742D01*
X-366494Y55875D02*
X-354247Y62946D01*
X-431789Y73370D02*
X-366494Y55875D01*
X-337567Y59512D02*
X-336273Y64342D01*
X-363287Y44663D02*
X-337567Y59512D01*
X-435796Y84797D02*
X-370668Y67346D01*
X-427477Y61862D02*
X-363287Y44663D01*
X-337405Y141255D02*
X-322556Y115536D01*
X-401823Y158516D02*
X-337405Y141255D01*
X-323850Y110706D02*
X-322556Y115536D01*
X-340271Y115106D02*
X-338718Y120902D01*
X-345789Y133149D02*
X-338718Y120902D01*
X-411181Y150671D02*
X-345789Y133149D01*
X-275772Y-233345D02*
X-271529Y-237588D01*
X-289914Y-233345D02*
X-275772Y-233345D01*
X-336583Y-280014D02*
X-289914Y-233345D01*
X-263044Y-222031D02*
X-259508Y-225567D01*
X-292742Y-222031D02*
X-263044Y-222031D01*
X-334451Y-292025D02*
X-287792Y-245366D01*
X-338704Y-267994D02*
X-292742Y-222031D01*
X59411Y-377101D02*
X66482Y-364854D01*
X72277Y-363301D01*
X63048Y-348174D02*
X67877Y-346880D01*
X48198Y-373894D02*
X63048Y-348174D01*
X70882Y-381274D02*
X85438Y-435601D01*
X48198Y-373894D02*
X62522Y-427350D01*
X118642Y-350877D02*
X124437Y-349324D01*
X136685Y-356395D01*
X151321Y-411019D01*
X114242Y-334457D02*
X119071Y-333162D01*
X144791Y-348012D01*
X159148Y-401595D01*
X-267994Y-338704D02*
X-222031Y-292742D01*
Y-263044D01*
X-225567Y-259508D02*
X-222031Y-263044D01*
X-280014Y-336583D02*
X-233345Y-289914D01*
Y-275772D01*
X-237588Y-271529D02*
X-233345Y-275772D01*
X166856Y322462D02*
Y411446D01*
X160856Y319976D02*
Y407533D01*
X166856Y322462D02*
X188797Y300520D01*
X201525D01*
X208596Y293449D01*
X197283Y287792D02*
X225567Y259508D01*
X184555Y287792D02*
X197283D01*
X154856Y317491D02*
X184555Y287792D01*
X160856Y319976D02*
X187040Y293792D01*
X199768D01*
X215667Y277893D01*
X154856Y317491D02*
Y403497D01*
X396935Y-195825D02*
Y-194693D01*
X391040Y-188797D02*
X396935Y-194693D01*
X391030Y-188797D02*
X391040D01*
X366988Y-173241D02*
X390467Y-196720D01*
X367716Y-165484D02*
X391030Y-188797D01*
X358524Y-165484D02*
X367716D01*
X354260Y-161220D02*
X358524Y-165484D01*
X354260Y-161220D02*
Y-121937D01*
X356691Y-119506D01*
X390467Y-196720D02*
X390477D01*
X366988Y-173241D02*
X366988D01*
X365231Y-171484D02*
X366988Y-173241D01*
X356039Y-171484D02*
X365231D01*
X337997Y-153442D02*
X356039Y-171484D01*
X337997Y-153442D02*
Y-117380D01*
X340271Y-115106D01*
X383163Y-199394D02*
Y-197901D01*
X362746Y-177484D02*
X383163Y-197901D01*
X353553Y-177484D02*
X362746D01*
X323850Y-147780D02*
X353553Y-177484D01*
X323850Y-147780D02*
Y-110706D01*
X341886Y-199404D02*
X342986Y-198304D01*
X301227Y-199404D02*
X341886D01*
X310077Y-151685D02*
X345068Y-186676D01*
X310077Y-151685D02*
Y-148856D01*
X239709Y293449D02*
X249609Y283550D01*
X208596Y293449D02*
X239709D01*
X215667Y277893D02*
X231224D01*
X237588Y271529D01*
X350725Y-26870D02*
X372645Y-4950D01*
X421436Y69296D02*
X438406Y52326D01*
X265165Y-163342D02*
X301227Y-199404D01*
X431335Y11314D02*
Y39598D01*
X414365Y-5657D02*
X431335Y11314D01*
X429921Y-38184D02*
X438406Y-29699D01*
Y52326D01*
X372645Y-4950D02*
X385373D01*
X409021Y-28598D01*
Y-30012D02*
Y-28598D01*
Y-30012D02*
X417193Y-38184D01*
X429921D01*
X-159154Y401614D02*
X-144791Y348012D01*
X-159160Y401636D02*
X-159154Y401614D01*
X-151338Y411081D02*
X-151324Y411029D01*
X-136685Y356395D01*
X-420412Y142792D02*
X-355139Y125302D01*
X-420430Y142797D02*
X-420412Y142792D01*
X59411Y-377101D02*
X74039Y-431697D01*
X74039Y-431697D01*
X-74039Y431697D02*
Y431697D01*
X-74040Y431701D02*
X-74039Y431697D01*
Y431697D02*
X-59411Y377101D01*
X-292025Y-334451D02*
X-245366Y-287792D01*
D25*
X300127Y-124764D02*
Y-97656D01*
X321789Y-75994D01*
X305627Y-121779D02*
Y-99934D01*
X324067Y-81494D01*
X305627Y-121779D02*
X312220Y-128372D01*
X324621Y-75994D02*
X336273Y-64342D01*
X321789Y-75994D02*
X324621D01*
X338231Y-81494D02*
X347924Y-71801D01*
X324067Y-81494D02*
X338231D01*
X327370Y-86994D02*
X353552D01*
X311127Y-103238D02*
X327370Y-86994D01*
X311127Y-119501D02*
Y-103238D01*
Y-119501D02*
X317720Y-126094D01*
X342986Y-198304D02*
X351818Y-189472D01*
Y-183880D01*
X336229Y-168291D02*
X351818Y-183880D01*
X335169Y-168291D02*
X336229D01*
X316109Y-149232D02*
X335169Y-168291D01*
X316109Y-149232D02*
Y-136793D01*
X310077Y-135047D02*
X312220Y-132904D01*
X310077Y-148856D02*
Y-135047D01*
X353552Y-86994D02*
X364345Y-76201D01*
X304763Y-130815D02*
X305470Y-130108D01*
X312220Y-132904D02*
Y-128372D01*
X317720Y-135182D02*
Y-126094D01*
X316109Y-136793D02*
X317720Y-135182D01*
X300127Y-124764D02*
X305470Y-130108D01*
D26*
X-313845Y-163938D02*
Y-144492D01*
X-292122Y-122770D01*
Y-63553D01*
X-352846Y-2828D02*
X-292122Y-63553D01*
X-352846Y-2828D02*
Y2121D01*
X-335876Y-229810D02*
X-328805Y-236881D01*
X-335876Y-229810D02*
Y-156624D01*
X-299122Y-119870D01*
Y-68574D01*
X-354260Y-13435D02*
X-299122Y-68574D01*
X271529Y237588D02*
X283550Y249609D01*
X271529Y237588D02*
X271529D01*
X259508Y225567D02*
X271529Y237588D01*
Y237588D01*
X-363453Y12728D02*
X-352846Y2121D01*
D27*
X355573Y38992D02*
X420021Y-25456D01*
X182434Y281429D02*
X195161D01*
X337997Y5657D02*
Y22627D01*
X328804Y7778D02*
X330926Y9900D01*
X361205Y-188924D02*
Y-186196D01*
X345725Y-204404D02*
X361205Y-188924D01*
X299156Y-204404D02*
X345725D01*
X292278Y68347D02*
X337997Y22627D01*
X313955Y236881D02*
Y274357D01*
X294156Y294156D02*
X313955Y274357D01*
X263044Y271529D02*
X273650D01*
X284257Y-189505D02*
X299156Y-204404D01*
X288278Y66690D02*
X330926Y24042D01*
X335169Y2828D02*
X337997Y5657D01*
X191626Y-280721D02*
X198467Y-273881D01*
Y-238525D01*
X247487Y-189505D01*
X284257D01*
X313955Y236881D02*
X368746Y182090D01*
X372281D01*
X310420Y-16263D02*
X311834D01*
X342240Y-46669D01*
X319612Y-15556D02*
X350725Y-46669D01*
Y-50912D02*
Y-46669D01*
X319612Y-15556D02*
X319612D01*
X318420Y-14364D02*
X319612Y-15556D01*
X330926Y9900D02*
Y24042D01*
X380878Y152492D02*
X414122Y119249D01*
X416486Y-16264D02*
X424971D01*
X431335Y-22627D01*
X300622Y72236D02*
X333865Y38992D01*
X355573D01*
X309956Y152492D02*
X380878D01*
X300622Y72236D02*
Y153341D01*
X58442Y314298D02*
X63983Y308758D01*
X64099D01*
X181748Y276457D02*
X194475D01*
X228274Y220032D02*
Y239123D01*
Y220032D02*
X296622Y151684D01*
Y70579D02*
Y151684D01*
Y70579D02*
X332208Y34992D01*
X353917D01*
X414021Y-25113D01*
Y-27941D02*
Y-25113D01*
Y-27941D02*
X417536Y-31456D01*
X426749D01*
X427800Y-30406D01*
X195161Y281429D02*
X211607Y264983D01*
X194475Y276457D02*
X204333Y266599D01*
Y263065D02*
Y266599D01*
Y263065D02*
X228274Y239123D01*
X232274Y221688D02*
Y240780D01*
X211607Y261448D02*
Y264983D01*
Y261448D02*
X232274Y240780D01*
X288278Y66690D02*
Y148714D01*
X192818Y272457D02*
X200333Y264942D01*
Y261408D02*
Y264942D01*
X160513Y289207D02*
X177262Y272457D01*
X192818D01*
X164999Y293207D02*
X181748Y276457D01*
X164049Y299813D02*
X182434Y281429D01*
X134350Y299813D02*
X164049D01*
X139300Y289207D02*
X160513D01*
X137643Y293207D02*
X164999D01*
X127986Y293449D02*
X134350Y299813D01*
X125501Y287449D02*
X131886D01*
X137643Y293207D01*
X123844Y283449D02*
X133543D01*
X139300Y289207D01*
X72236Y300622D02*
X112329D01*
X125501Y287449D01*
X64099Y308758D02*
X72236Y300622D01*
X56568Y306884D02*
X67881Y295571D01*
X111723D01*
X123844Y283449D01*
X32184Y314298D02*
X58442D01*
X19092Y327390D02*
X32184Y314298D01*
X414122Y28042D02*
Y119249D01*
X408365Y-8142D02*
Y22284D01*
Y-8142D02*
X416486Y-16264D01*
X408365Y22284D02*
X414122Y28042D01*
X208596Y228396D02*
X288278Y148714D01*
X208596Y228396D02*
Y253144D01*
X200333Y261408D02*
X208596Y253144D01*
X232274Y221688D02*
X300622Y153341D01*
X292278Y68347D02*
Y150371D01*
X215668Y226981D02*
X292278Y150371D01*
X215668Y226981D02*
Y229810D01*
X273650Y271529D02*
X372292Y172888D01*
X241123Y221324D02*
X309956Y152492D01*
D28*
X317491Y6364D02*
X318804Y5051D01*
X295571Y220617D02*
X341179Y175009D01*
X288500Y220617D02*
X295571D01*
X271529Y237588D02*
X288500Y220617D01*
X318804Y3636D02*
Y5051D01*
Y3636D02*
X324662Y-2222D01*
X326077D01*
X350725Y-26870D01*
X192333Y233345D02*
Y261629D01*
Y233345D02*
X280278Y145400D01*
Y63376D02*
Y145400D01*
Y63376D02*
X317491Y26163D01*
Y6364D02*
Y26163D01*
X189504Y264457D02*
X192333Y261629D01*
D29*
X-353569Y-444079D02*
Y-429937D01*
X-364176Y-419330D02*
X-353569Y-429937D01*
D30*
X-378107Y-401413D02*
D03*
D31*
X-400107Y-379412D02*
D03*
D32*
X300343Y266049D02*
D03*
X266049Y300343D02*
D03*
D33*
X278246Y329157D02*
D03*
X329157Y278246D02*
D03*
D34*
X357372Y95742D02*
D03*
X261630Y-261630D02*
D03*
X-95742Y-357372D02*
D03*
X-357372Y-95742D02*
D03*
X-261630Y261630D02*
D03*
X95742Y357372D02*
D03*
X0Y0D02*
D03*
D35*
X213900Y360978D02*
D03*
D36*
X196222Y343300D02*
D03*
D37*
X-171120Y-234760D02*
D03*
X-250316Y147078D02*
D03*
D38*
X-417000Y-466000D02*
D03*
X-415000Y-307000D02*
D03*
X-424971Y-380864D02*
D03*
X-313845Y-163938D02*
D03*
X-354260Y-13435D02*
D03*
X-328805Y-236881D02*
D03*
X280014Y-123037D02*
D03*
X-363453Y12728D02*
D03*
X226274Y369110D02*
D03*
X219203Y376181D02*
D03*
X200818Y369110D02*
D03*
X207889Y376181D02*
D03*
X-470000Y-360000D02*
D03*
X-350000Y-320000D02*
D03*
X-219999Y-340000D02*
D03*
X-209999Y-360000D02*
D03*
X-199999Y-340000D02*
D03*
X-209999Y-320000D02*
D03*
X-179999Y-380000D02*
D03*
X-189999Y-360000D02*
D03*
X-179999Y-340000D02*
D03*
X-159999Y-380000D02*
D03*
X-169999Y-360000D02*
D03*
X-159999Y-340000D02*
D03*
X-169999Y-320000D02*
D03*
X-159999Y-300000D02*
D03*
X-149999Y-320000D02*
D03*
X-139999Y-300000D02*
D03*
X-119999D02*
D03*
X-129999Y-280000D02*
D03*
X-99999Y-300000D02*
D03*
X-79999D02*
D03*
X-59999Y-420000D02*
D03*
Y-300000D02*
D03*
X-39999Y-420000D02*
D03*
X-49999Y-400000D02*
D03*
X-39999Y-380000D02*
D03*
Y-340000D02*
D03*
X-49999Y-320000D02*
D03*
X-39999Y-300000D02*
D03*
X-19999Y-420000D02*
D03*
X-29999Y-400000D02*
D03*
X-19999Y-380000D02*
D03*
X-29999Y-360000D02*
D03*
X-19999Y-340000D02*
D03*
X-29999Y-320000D02*
D03*
X1Y-420000D02*
D03*
X-9999Y-400000D02*
D03*
X1Y-380000D02*
D03*
X-9999Y-360000D02*
D03*
X1Y-340000D02*
D03*
X-9999Y-320000D02*
D03*
X20001Y-420000D02*
D03*
X10001Y-400000D02*
D03*
X20001Y-380000D02*
D03*
X10001Y-360000D02*
D03*
X20001Y-340000D02*
D03*
X10001Y-320000D02*
D03*
X40001Y-420000D02*
D03*
X30001Y-400000D02*
D03*
X40001Y-380000D02*
D03*
X30001Y-360000D02*
D03*
X40001Y-340000D02*
D03*
X30001Y-320000D02*
D03*
X40001Y-300000D02*
D03*
X50001Y-320000D02*
D03*
X60001Y-300000D02*
D03*
X70001Y-320000D02*
D03*
X80001Y-300000D02*
D03*
X100001Y-420000D02*
D03*
X90001Y-400000D02*
D03*
X100001Y-380000D02*
D03*
X90001Y-360000D02*
D03*
Y-320000D02*
D03*
X100001Y-300000D02*
D03*
X120001Y-420000D02*
D03*
X110001Y-400000D02*
D03*
X120001Y-380000D02*
D03*
X110001Y-320000D02*
D03*
X130001Y-400000D02*
D03*
X140001Y-300000D02*
D03*
X130001Y-280000D02*
D03*
X160001Y-340000D02*
D03*
X150001Y-320000D02*
D03*
X160001Y-260000D02*
D03*
X180001Y-380000D02*
D03*
Y-340000D02*
D03*
X170001Y-320000D02*
D03*
X180001Y-260000D02*
D03*
X200001Y-300000D02*
D03*
X190001Y-240000D02*
D03*
X210001Y-360000D02*
D03*
Y-320000D02*
D03*
X240001Y-340000D02*
D03*
X230001Y-320000D02*
D03*
X250001D02*
D03*
Y-200000D02*
D03*
X270001Y-320000D02*
D03*
X320001Y-260000D02*
D03*
X360001Y220000D02*
D03*
X370001Y160000D02*
D03*
X380001Y220000D02*
D03*
X400001Y180000D02*
D03*
X390001Y200000D02*
D03*
X410001Y160000D02*
D03*
D39*
X-366000Y-398000D02*
D03*
X-333754Y-397394D02*
D03*
X381838Y-145664D02*
D03*
X420021Y-25456D02*
D03*
X328804Y7778D02*
D03*
X361205Y-186196D02*
D03*
X345068Y-186676D02*
D03*
X313955Y-46669D02*
D03*
X364867Y-42426D02*
D03*
X431335Y-22627D02*
D03*
X421436Y69296D02*
D03*
X310420Y-16263D02*
D03*
X-397056Y-488980D02*
D03*
X-459282Y-365944D02*
D03*
X-314325Y-396349D02*
D03*
X-434533Y-450089D02*
D03*
X-386450Y-386450D02*
D03*
X-433826Y-397056D02*
D03*
X-341692Y-371390D02*
D03*
X-380086Y-430998D02*
D03*
X-388571Y-481909D02*
D03*
X-353569Y-444079D02*
D03*
X-391896Y-321730D02*
D03*
X-406956Y-330588D02*
D03*
X-305133Y-387157D02*
D03*
X265165Y-163342D02*
D03*
X414365Y-5657D02*
D03*
X431335Y39598D02*
D03*
X294156Y294156D02*
D03*
X263044Y271529D02*
D03*
X191626Y-280721D02*
D03*
X335169Y2828D02*
D03*
X350725Y-50912D02*
D03*
X342240Y-46669D02*
D03*
X333754Y-48083D02*
D03*
X372281Y182090D02*
D03*
X372645Y173241D02*
D03*
X304763Y-130815D02*
D03*
X318420Y-14364D02*
D03*
X377595Y-35355D02*
D03*
X267286Y-149907D02*
D03*
X130108Y277186D02*
D03*
X173241Y255266D02*
D03*
X427800Y-30406D02*
D03*
X241477Y221678D02*
D03*
X56568Y306884D02*
D03*
X289914Y199404D02*
D03*
X434871Y-68589D02*
D03*
X127986Y293449D02*
D03*
X19092Y327390D02*
D03*
X-477500Y-387500D02*
D03*
X215668Y229810D02*
D03*
D40*
X312541Y295571D02*
D03*
X294863Y313248D02*
D03*
X214253Y338704D02*
D03*
X175362Y346482D02*
D03*
X183848Y354968D02*
D03*
X214253Y320319D02*
D03*
X205768Y311834D02*
D03*
X196576Y321026D02*
D03*
X205061Y329512D02*
D03*
X341179Y175009D02*
D03*
X350725Y-26870D02*
D03*
X189504Y264457D02*
D03*
X-304000Y-220000D02*
D03*
X-357000Y-189000D02*
D03*
X-365000Y-173000D02*
D03*
X-373000Y-156000D02*
D03*
X-351000Y-167000D02*
D03*
X-321000Y-222000D02*
D03*
X33941Y379009D02*
D03*
X32527Y362039D02*
D03*
X32000Y345000D02*
D03*
X0Y308000D02*
D03*
X-20000Y308000D02*
D03*
X342500Y255000D02*
D03*
Y237500D02*
D03*
X360000D02*
D03*
X322500Y255000D02*
D03*
X392500Y167500D02*
D03*
X-405000Y-55000D02*
D03*
X-397500Y-40000D02*
D03*
X-405000Y-25000D02*
D03*
X-397500Y-10000D02*
D03*
X-405000Y5000D02*
D03*
X-397500Y20000D02*
D03*
X-405000Y35000D02*
D03*
X-382500Y-40000D02*
D03*
X-390000Y-25000D02*
D03*
X-375000Y35000D02*
D03*
X-352500Y170000D02*
D03*
X-345000Y-205000D02*
D03*
X-337500Y170000D02*
D03*
X-322500D02*
D03*
X-330000Y185000D02*
D03*
X-322500Y200000D02*
D03*
X-330000Y215000D02*
D03*
X-322500Y230000D02*
D03*
X-315000Y185000D02*
D03*
X-307500Y200000D02*
D03*
X-315000Y215000D02*
D03*
X-300000Y185000D02*
D03*
X-292500Y200000D02*
D03*
X-300000Y215000D02*
D03*
X-277500Y140000D02*
D03*
Y200000D02*
D03*
X-270000Y155000D02*
D03*
X-262500Y200000D02*
D03*
X-255000Y185000D02*
D03*
X-247500Y200000D02*
D03*
X-240000Y185000D02*
D03*
X-232500Y200000D02*
D03*
X-225000Y215000D02*
D03*
X-202500Y230000D02*
D03*
Y260000D02*
D03*
X-195000Y245000D02*
D03*
X-187500Y260000D02*
D03*
X-195000Y275000D02*
D03*
X-180000Y245000D02*
D03*
X-97500Y380000D02*
D03*
X-30000Y305000D02*
D03*
X-7500Y380000D02*
D03*
X30000Y335000D02*
D03*
M02*
